<svg width="27" height="27" viewBox="0 0 27 27" fill="none" xmlns="http://www.w3.org/2000/svg">
<path d="M27 26.0771C27 26.3232 26.9253 26.5386 26.7759 26.7231C26.6265 26.9077 26.4199 27 26.1562 27C25.9277 27 25.73 26.9165 25.563 26.7495L15.2139 16.4136C14.3701 17.1079 13.4473 17.6396 12.4453 18.0088C11.4434 18.3779 10.3887 18.5625 9.28125 18.5625C8.42871 18.5625 7.60693 18.4526 6.81592 18.2329C6.0249 18.0132 5.28662 17.7012 4.60107 17.2969C3.91553 16.8926 3.2915 16.4092 2.729 15.8467C2.1665 15.2842 1.67871 14.6558 1.26562 13.9614C0.852539 13.2671 0.540527 12.5288 0.32959 11.7466C0.118652 10.9644 0.00878906 10.1426 0 9.28125C0 8.42871 0.109863 7.60693 0.32959 6.81592C0.549316 6.0249 0.861328 5.28662 1.26562 4.60107C1.66992 3.91553 2.15332 3.2915 2.71582 2.729C3.27832 2.1665 3.90674 1.67871 4.60107 1.26562C5.29541 0.852539 6.03369 0.540527 6.81592 0.32959C7.59814 0.118652 8.41992 0.00878906 9.28125 0C10.1338 0 10.9556 0.109863 11.7466 0.32959C12.5376 0.549316 13.2759 0.861328 13.9614 1.26562C14.647 1.66992 15.271 2.15332 15.8335 2.71582C16.396 3.27832 16.8838 3.90674 17.2969 4.60107C17.71 5.29541 18.022 6.03369 18.2329 6.81592C18.4438 7.59814 18.5537 8.41992 18.5625 9.28125C18.5625 10.3799 18.3779 11.4302 18.0088 12.4321C17.6396 13.4341 17.1079 14.3613 16.4136 15.2139L17.165 15.9653C17.5342 16.3345 17.9824 16.7739 18.5098 17.2837C19.0371 17.7935 19.6084 18.3516 20.2236 18.958C20.8389 19.5645 21.4629 20.1841 22.0957 20.8169C22.7285 21.4497 23.3394 22.0649 23.9282 22.6626C24.5171 23.2603 25.04 23.8008 25.4971 24.2842C25.9541 24.7676 26.3188 25.1675 26.5913 25.4839C26.8638 25.8003 27 25.998 27 26.0771ZM9.28125 16.875C10.3271 16.875 11.3115 16.6772 12.2344 16.2817C13.1572 15.8862 13.9614 15.3413 14.647 14.647C15.3325 13.9526 15.873 13.1484 16.2686 12.2344C16.6641 11.3203 16.8662 10.3359 16.875 9.28125C16.875 8.23535 16.6772 7.25098 16.2817 6.32812C15.8862 5.40527 15.3413 4.60107 14.647 3.91553C13.9526 3.22998 13.1484 2.68945 12.2344 2.29395C11.3203 1.89844 10.3359 1.69629 9.28125 1.6875C8.23535 1.6875 7.25098 1.88525 6.32812 2.28076C5.40527 2.67627 4.60107 3.22119 3.91553 3.91553C3.22998 4.60986 2.68945 5.41406 2.29395 6.32812C1.89844 7.24219 1.69629 8.22656 1.6875 9.28125C1.6875 10.3271 1.88525 11.3115 2.28076 12.2344C2.67627 13.1572 3.22119 13.9614 3.91553 14.647C4.60986 15.3325 5.41406 15.873 6.32812 16.2686C7.24219 16.6641 8.22656 16.8662 9.28125 16.875Z" fill="#7A7A7A"/>
</svg>
