<svg width="513" height="480" viewBox="0 0 513 480" fill="none" xmlns="http://www.w3.org/2000/svg">
<g clip-path="url(#clip0)">
<path d="M156.34 127.371L155.392 379.265L78.6776 379.019L78.566 412.873C78.5423 423.058 82.5562 432.836 89.7257 440.057C96.8951 447.279 106.633 451.354 116.801 451.386L155.158 451.509L376.825 452.224C381.862 452.24 386.853 451.262 391.513 449.346C396.173 447.43 400.411 444.614 403.984 441.057C407.557 437.501 410.396 433.274 412.339 428.618C414.281 423.963 415.289 418.969 415.305 413.923L416.487 89.7521L194.82 89.037C189.78 89.0209 184.787 89.9998 180.124 91.918C175.462 93.8361 171.223 96.6558 167.65 100.216C164.076 103.776 161.238 108.007 159.297 112.666C157.357 117.326 156.352 122.323 156.34 127.371Z" fill="#FFCD52"/>
<path d="M78.7151 378.974L155.429 379.215L155.323 413.069C155.291 423.26 151.219 433.02 144.003 440.203C136.787 447.387 127.019 451.404 116.846 451.372C106.673 451.34 96.929 447.261 89.7582 440.033C82.5875 432.804 78.577 423.018 78.6089 412.828L78.7151 378.974Z" fill="#FDA01F"/>
<path d="M75.9562 451.487C88.079 451.487 97.9065 434.429 97.9065 413.387C97.9065 392.345 88.079 375.287 75.9562 375.287C63.8334 375.287 54.0059 392.345 54.0059 413.387C54.0059 434.429 63.8334 451.487 75.9562 451.487Z" stroke="#FF5061" stroke-linecap="round" stroke-linejoin="round"/>
<path d="M57.1288 430.158C54.0058 422.94 56.3704 418.515 56.3704 413.398C56.3704 402.639 59.9619 390.449 66.4087 382.807C68.137 388.275 69.0613 393.966 69.1525 399.7C69.1525 410.46 63.5756 422.493 57.1288 430.158Z" fill="#FF5061"/>
<path d="M42.183 437.878C54.3058 437.878 64.1333 420.82 64.1333 399.778C64.1333 378.737 54.3058 361.679 42.183 361.679C30.0602 361.679 20.2327 378.737 20.2327 399.778C20.2327 420.82 30.0602 437.878 42.183 437.878Z" fill="white"/>
<path d="M96.0774 414.583C96.0774 418.828 97.8062 422.225 95.4528 427.99C85.4145 419.934 77.7854 406.415 77.7854 392.483C77.9186 387.573 78.6338 382.698 79.9157 377.958C89.9986 385.924 96.0774 400.65 96.0774 414.583Z" fill="#FF5061"/>
<path d="M103.662 428.381C115.785 428.381 125.612 411.323 125.612 390.281C125.612 369.24 115.785 352.182 103.662 352.182C91.5389 352.182 81.7114 369.24 81.7114 390.281C81.7114 411.323 91.5389 428.381 103.662 428.381Z" fill="white"/>
<path d="M75.9561 451.487V394.348" stroke="#FF5061" stroke-linecap="round" stroke-linejoin="round"/>
<path d="M75.9561 416.728L84.8455 406.549" stroke="#FF5061" stroke-linecap="round" stroke-linejoin="round"/>
<path d="M75.9561 428.884L88.7716 414.214" stroke="#FF5061" stroke-linecap="round" stroke-linejoin="round"/>
<path d="M75.9561 441.409L89.1843 426.258" stroke="#FF5061" stroke-linecap="round" stroke-linejoin="round"/>
<path d="M75.9561 416.75L65.1816 404.404" stroke="#FF5061" stroke-linecap="round" stroke-linejoin="round"/>
<path d="M75.9562 428.906L62.728 413.756" stroke="#FF5061" stroke-linecap="round" stroke-linejoin="round"/>
<path d="M75.9562 441.431L62.728 426.281" stroke="#FF5061" stroke-linecap="round" stroke-linejoin="round"/>
<path d="M103.662 428.381C115.785 428.381 125.612 411.323 125.612 390.281C125.612 369.24 115.785 352.182 103.662 352.182C91.5389 352.182 81.7114 369.24 81.7114 390.281C81.7114 411.323 91.5389 428.381 103.662 428.381Z" stroke="#008EF8" stroke-miterlimit="10"/>
<path d="M103.662 371.243V428.37V451.632" stroke="#008EF8" stroke-linecap="round" stroke-linejoin="round"/>
<path d="M103.662 393.622L114.425 381.298" stroke="#008EF8" stroke-linecap="round" stroke-linejoin="round"/>
<path d="M103.662 405.778L116.89 390.628" stroke="#008EF8" stroke-linecap="round" stroke-linejoin="round"/>
<path d="M103.662 418.303L116.89 403.153" stroke="#008EF8" stroke-linecap="round" stroke-linejoin="round"/>
<path d="M103.662 393.644L92.8762 381.298" stroke="#008EF8" stroke-linecap="round" stroke-linejoin="round"/>
<path d="M103.662 405.801L90.4336 390.65" stroke="#008EF8" stroke-linecap="round" stroke-linejoin="round"/>
<path d="M103.662 418.325L90.4336 403.175" stroke="#008EF8" stroke-linecap="round" stroke-linejoin="round"/>
<path d="M42.183 437.878C54.3058 437.878 64.1333 420.82 64.1333 399.778C64.1333 378.737 54.3058 361.679 42.183 361.679C30.0602 361.679 20.2327 378.737 20.2327 399.778C20.2327 420.82 30.0602 437.878 42.183 437.878Z" stroke="#FFCD52" stroke-linecap="round" stroke-linejoin="round"/>
<path d="M42.1829 380.74V437.878V451.632" stroke="#FFCD52" stroke-linecap="round" stroke-linejoin="round"/>
<path d="M42.1829 403.119L52.9461 390.795" stroke="#FFCD52" stroke-linecap="round" stroke-linejoin="round"/>
<path d="M42.1829 415.275L55.4111 400.125" stroke="#FFCD52" stroke-linecap="round" stroke-linejoin="round"/>
<path d="M42.1829 427.8L55.4111 412.65" stroke="#FFCD52" stroke-linecap="round" stroke-linejoin="round"/>
<path d="M42.1829 403.142L31.4084 390.795" stroke="#FFCD52" stroke-linecap="round" stroke-linejoin="round"/>
<path d="M42.183 415.298L28.9548 400.147" stroke="#FFCD52" stroke-linecap="round" stroke-linejoin="round"/>
<path d="M42.183 427.834L28.9548 412.672" stroke="#FFCD52" stroke-linecap="round" stroke-linejoin="round"/>
<path d="M417.831 376.9L402.094 389.443L474.036 480.01L489.772 467.467L417.831 376.9Z" fill="#008EF8"/>
<path d="M434.088 429.699L434.289 429.956L444.918 443.364C450.595 433.141 446.435 415.298 445.532 411.789L433.263 396.404C433.263 396.404 442.208 418.895 434.088 429.699Z" fill="#0234C1"/>
<path d="M222.281 247.145H110.22C108.372 247.145 106.874 248.646 106.874 250.497V332.73C106.874 334.581 108.372 336.082 110.22 336.082H222.281C224.129 336.082 225.627 334.581 225.627 332.73V250.497C225.627 248.646 224.129 247.145 222.281 247.145Z" stroke="#0234C1" stroke-miterlimit="10"/>
<path d="M216.949 252.832H115.529C113.681 252.832 112.183 254.333 112.183 256.184V327.032C112.183 328.883 113.681 330.383 115.529 330.383H216.949C218.797 330.383 220.295 328.883 220.295 327.032V256.184C220.295 254.333 218.797 252.832 216.949 252.832Z" fill="#008EF8"/>
<path d="M209.878 258.34H184.024C182.176 258.34 180.677 259.841 180.677 261.692V321.043C180.677 322.894 182.176 324.395 184.024 324.395H209.878C211.726 324.395 213.224 322.894 213.224 321.043V261.692C213.224 259.841 211.726 258.34 209.878 258.34Z" fill="#C1E3F7"/>
<path d="M170.829 301.792H124.709C122.861 301.792 121.363 303.293 121.363 305.144V321.054C121.363 322.905 122.861 324.406 124.709 324.406H170.829C172.677 324.406 174.175 322.905 174.175 321.054V305.144C174.175 303.293 172.677 301.792 170.829 301.792Z" fill="#C1E3F7"/>
<path d="M173.06 258.34H122.478C121.862 258.34 121.363 258.841 121.363 259.458V265.368C121.363 265.985 121.862 266.485 122.478 266.485H173.06C173.676 266.485 174.175 265.985 174.175 265.368V259.458C174.175 258.841 173.676 258.34 173.06 258.34Z" fill="#C1E3F7"/>
<path d="M139.208 273.748H126.415C124.161 273.748 122.333 275.579 122.333 277.837V290.652C122.333 292.911 124.161 294.742 126.415 294.742H139.208C141.463 294.742 143.291 292.911 143.291 290.652V277.837C143.291 275.579 141.463 273.748 139.208 273.748Z" fill="#C1E3F7"/>
<path d="M168.386 273.748H155.593C153.338 273.748 151.511 275.579 151.511 277.837V290.652C151.511 292.911 153.338 294.742 155.593 294.742H168.386C170.641 294.742 172.468 292.911 172.468 290.652V277.837C172.468 275.579 170.641 273.748 168.386 273.748Z" fill="#C1E3F7"/>
<path d="M474.275 51.9094H362.214C360.366 51.9094 358.868 53.4101 358.868 55.2613V137.494C358.868 139.345 360.366 140.846 362.214 140.846H474.275C476.123 140.846 477.621 139.345 477.621 137.494V55.2613C477.621 53.4101 476.123 51.9094 474.275 51.9094Z" stroke="#0234C1" stroke-miterlimit="10"/>
<path d="M468.954 57.6076H367.534C365.686 57.6076 364.188 59.1083 364.188 60.9595V131.807C364.188 133.658 365.686 135.159 367.534 135.159H468.954C470.802 135.159 472.3 133.658 472.3 131.807V60.9595C472.3 59.1083 470.802 57.6076 468.954 57.6076Z" fill="#008EF8"/>
<path d="M461.883 63.1158H436.029C434.181 63.1158 432.683 64.6165 432.683 66.4677V125.818C432.683 127.669 434.181 129.17 436.029 129.17H461.883C463.731 129.17 465.229 127.669 465.229 125.818V66.4677C465.229 64.6165 463.731 63.1158 461.883 63.1158Z" fill="#C1E3F7"/>
<path d="M422.834 106.556H376.714C374.866 106.556 373.368 108.057 373.368 109.908V125.818C373.368 127.669 374.866 129.17 376.714 129.17H422.834C424.682 129.17 426.18 127.669 426.18 125.818V109.908C426.18 108.057 424.682 106.556 422.834 106.556Z" fill="#C1E3F7"/>
<path d="M425.065 63.1158H374.483C373.867 63.1158 373.368 63.6161 373.368 64.2331V70.1436C373.368 70.7607 373.867 71.2609 374.483 71.2609H425.065C425.681 71.2609 426.18 70.7607 426.18 70.1436V64.2331C426.18 63.6161 425.681 63.1158 425.065 63.1158Z" fill="#C1E3F7"/>
<path d="M391.214 78.5121H378.42C376.166 78.5121 374.338 80.343 374.338 82.6014V95.4168C374.338 97.6752 376.166 99.5061 378.42 99.5061H391.214C393.468 99.5061 395.296 97.6752 395.296 95.4168V82.6014C395.296 80.343 393.468 78.5121 391.214 78.5121Z" fill="#C1E3F7"/>
<path d="M420.38 78.5121H407.587C405.333 78.5121 403.505 80.343 403.505 82.6014V95.4168C403.505 97.6752 405.333 99.5061 407.587 99.5061H420.38C422.635 99.5061 424.463 97.6752 424.463 95.4168V82.6014C424.463 80.343 422.635 78.5121 420.38 78.5121Z" fill="#C1E3F7"/>
<path d="M346.064 350.294L417.302 162.007L494.028 162.264L494.128 128.399C494.144 123.353 493.168 118.354 491.255 113.686C489.342 109.018 486.531 104.773 482.98 101.194C479.43 97.6142 475.21 94.7703 470.563 92.8245C465.915 90.8786 460.931 89.8688 455.893 89.8527L417.536 89.7298L195.869 89.0147C190.827 88.9985 185.831 89.9782 181.168 91.8978C176.504 93.8173 172.264 96.639 168.69 100.202C165.116 103.764 162.279 107.997 160.34 112.659C158.4 117.321 157.398 122.321 157.389 127.371L156.207 451.543L346.064 350.294Z" fill="#FFCD52"/>
<path d="M494.01 162.314L417.33 162.073L417.436 128.219C417.468 118.029 421.54 108.268 428.756 101.085C435.972 93.9018 445.741 89.8844 455.914 89.9164C466.086 89.9484 475.83 94.0273 483.001 101.256C490.172 108.484 494.182 118.27 494.15 128.461L494.044 162.314L494.01 162.314Z" fill="#FDA01F"/>
<path d="M399.913 370.505C398.105 371.942 396.213 373.271 394.247 374.483L404.564 387.477L415.372 378.852L405.055 365.869C403.431 367.512 401.715 369.06 399.913 370.505Z" fill="#FF5061"/>
<path d="M352.555 379.03C390.673 379.03 421.574 348.076 421.574 309.892C421.574 271.708 390.673 240.754 352.555 240.754C314.437 240.754 283.536 271.708 283.536 309.892C283.536 348.076 314.437 379.03 352.555 379.03Z" fill="#489EE0"/>
<path d="M277.266 364.718L207.201 362.5C202.891 362.364 199.287 365.753 199.15 370.07L197.505 422.233C197.369 426.55 200.752 430.161 205.062 430.297L275.127 432.515C279.437 432.652 283.041 429.262 283.178 424.945L284.823 372.782C284.959 368.465 281.576 364.855 277.266 364.718Z" fill="#008EF8"/>
<path d="M263.887 150.752L193.822 148.534C189.512 148.398 185.908 151.787 185.771 156.105L184.126 208.267C183.99 212.585 187.373 216.195 191.683 216.331L261.749 218.549C266.058 218.686 269.663 215.297 269.799 210.979L271.444 158.817C271.581 154.499 268.197 150.889 263.887 150.752Z" fill="#008EF8"/>
<path d="M273.097 295.345L178.793 291.613" stroke="#0850EC" stroke-width="2" stroke-linecap="round" stroke-linejoin="round"/>
<path d="M272.807 321.87L178.77 319.602" stroke="#0850EC" stroke-width="2" stroke-linecap="round" stroke-linejoin="round"/>
<path d="M280.358 345.467L195.824 345.344" stroke="#0850EC" stroke-width="2" stroke-linecap="round" stroke-linejoin="round"/>
<path d="M286.113 156.466L389.206 160.544" stroke="#0850EC" stroke-width="2" stroke-linecap="round" stroke-linejoin="round"/>
<path d="M285.711 183.281L388.202 187.348" stroke="#0850EC" stroke-width="2" stroke-linecap="round" stroke-linejoin="round"/>
<path d="M303.178 208.677L389.396 211.839" stroke="#0850EC" stroke-width="2" stroke-linecap="round" stroke-linejoin="round"/>
<path d="M494.351 194.532C494.949 197.446 495.4 200.388 495.701 203.347C496.035 206.286 496.236 209.235 496.426 212.185C496.615 215.135 496.671 218.095 496.649 221.056C496.675 224.041 496.545 227.024 496.258 229.995C495.659 227.082 495.212 224.139 494.92 221.179C494.574 218.23 494.373 215.28 494.195 212.33C494.016 209.381 493.95 206.42 493.961 203.459C493.972 200.498 494.106 197.504 494.351 194.532Z" fill="#0850EC"/>
<path d="M513 211.291C510.091 211.89 507.154 212.341 504.2 212.643C501.255 212.978 498.311 213.179 495.366 213.358C492.421 213.537 489.466 213.615 486.51 213.593C483.531 213.614 480.553 213.483 477.587 213.202C480.496 212.602 483.433 212.151 486.387 211.85C489.321 211.515 492.265 211.314 495.21 211.135C498.154 210.956 501.11 210.889 504.133 210.9C507.155 210.911 510.022 210.99 513 211.291Z" fill="#0850EC"/>
<path d="M473.137 231.682C473.676 233.624 474.072 235.603 474.319 237.603C474.587 239.581 474.788 241.559 474.888 243.547C474.988 245.536 475.022 247.536 474.966 249.536C474.932 251.551 474.749 253.56 474.42 255.547C473.877 253.605 473.478 251.626 473.226 249.625C472.959 247.648 472.758 245.659 472.657 243.67C472.557 241.682 472.535 239.693 472.59 237.693C472.624 235.678 472.806 233.669 473.137 231.682Z" fill="#0850EC"/>
<path d="M485.685 242.966C483.745 243.506 481.77 243.906 479.773 244.162C477.799 244.43 475.825 244.62 473.84 244.732C471.854 244.843 469.858 244.855 467.861 244.799C465.85 244.765 463.845 244.582 461.861 244.251C463.799 243.711 465.775 243.315 467.772 243.067C469.746 242.799 471.732 242.598 473.717 242.497C475.702 242.397 477.688 242.363 479.684 242.419C481.695 242.463 483.699 242.646 485.685 242.966Z" fill="#0850EC"/>
<path d="M27.0586 240.218C27.672 243.156 28.0736 246.095 28.397 249.033C28.7205 251.972 28.9435 254.933 29.122 257.882C29.3005 260.832 29.3674 263.793 29.3562 266.754C29.3736 269.738 29.2396 272.721 28.9547 275.692C28.3412 272.765 27.9397 269.826 27.6163 266.888C27.2928 263.949 27.0697 260.988 26.8913 258.039C26.7128 255.089 26.6459 252.128 26.6682 249.167C26.6415 246.179 26.7718 243.192 27.0586 240.218Z" fill="#0850EC"/>
<path d="M45.7299 256.977C42.821 257.573 39.8839 258.02 36.9297 258.318C33.9963 258.653 31.0517 258.866 28.096 259.044C25.1403 259.223 22.1958 259.301 19.24 259.279C16.2611 259.3 13.2829 259.169 10.3171 258.888C13.2258 258.288 16.163 257.837 19.1174 257.536C22.0508 257.201 24.9953 257 27.951 256.821C30.9067 256.642 33.8513 256.564 36.807 256.586C39.786 256.565 42.7641 256.696 45.7299 256.977Z" fill="#0850EC"/>
<path d="M48.0944 276.44C48.6338 278.382 49.029 280.362 49.2767 282.362C49.5555 284.34 49.7451 286.329 49.8455 288.317C49.9459 290.306 49.9794 292.295 49.9236 294.295C49.8905 296.309 49.7078 298.319 49.3771 300.306C48.8394 298.363 48.4406 296.384 48.1836 294.384C47.9159 292.407 47.7263 290.418 47.6259 288.429C47.5256 286.44 47.4921 284.451 47.5479 282.452C47.5814 280.437 47.7641 278.428 48.0944 276.44Z" fill="#0850EC"/>
<path d="M60.6421 287.736C58.7063 288.272 56.7344 288.668 54.7418 288.921C52.7565 289.189 50.7823 289.39 48.7969 289.49C46.8116 289.591 44.8263 289.625 42.8298 289.569C40.8188 289.536 38.813 289.353 36.8291 289.021C38.7621 288.471 40.7348 288.071 42.7294 287.826C44.7147 287.558 46.6889 287.356 48.6743 287.256C50.6596 287.155 52.6449 287.144 54.6526 287.144C56.661 287.193 58.663 287.391 60.6421 287.736Z" fill="#0850EC"/>
<path d="M275.628 0C276.242 2.92731 276.643 5.86579 276.967 8.81544C277.29 11.7651 277.513 14.7036 277.692 17.6644C277.87 20.6252 277.937 23.5749 277.926 26.5357C277.915 29.4965 277.837 32.4573 277.536 35.474C276.937 32.5603 276.487 29.618 276.186 26.6586C275.851 23.7201 275.64 20.7705 275.461 17.8096C275.283 14.8488 275.216 11.8992 275.238 8.93834C275.217 5.9542 275.348 2.97092 275.628 0V0Z" fill="#0850EC"/>
<path d="M294.266 16.7594C291.344 17.3739 288.41 17.7761 285.466 18.1001C282.521 18.4242 279.588 18.6476 276.643 18.8264C273.699 19.0052 270.743 19.0722 267.776 19.061C264.797 19.0781 261.819 18.9439 258.853 18.6588C261.776 18.0443 264.709 17.6421 267.653 17.318C270.598 16.994 273.543 16.7706 276.487 16.5918C279.432 16.413 282.387 16.346 285.343 16.3683C288.322 16.3415 291.301 16.4721 294.266 16.7594Z" fill="#0850EC"/>
<path d="M296.686 36.2003C297.225 38.143 297.624 40.122 297.88 42.1219C298.148 44.0995 298.337 46.0772 298.449 48.0659C298.56 50.0547 298.571 52.0547 298.516 54.0434C298.482 56.0616 298.299 58.0745 297.969 60.0657C297.43 58.1237 297.035 56.1444 296.787 54.144C296.508 52.1664 296.318 50.1776 296.218 48.1888C296.118 46.2001 296.084 44.2113 296.14 42.2113C296.173 40.1968 296.356 38.1876 296.686 36.2003Z" fill="#0850EC"/>
<path d="M309.223 47.4849C307.283 48.0235 305.308 48.4231 303.312 48.6804C301.337 48.9486 299.352 49.1385 297.367 49.2503C295.381 49.362 293.396 49.3732 291.4 49.3173C289.389 49.2842 287.383 49.1012 285.399 48.7698C287.337 48.2284 289.313 47.8325 291.31 47.5855C293.285 47.3062 295.259 47.1162 297.244 47.0157C299.229 46.9151 301.226 46.8816 303.211 46.9375C305.226 46.9711 307.235 47.1541 309.223 47.4849Z" fill="#0850EC"/>
<path d="M0.557617 451.632H435.348" stroke="#545454" stroke-linecap="round" stroke-linejoin="round"/>
<path d="M352.154 389.835C396.505 389.835 432.46 353.818 432.46 309.389C432.46 264.961 396.505 228.944 352.154 228.944C307.802 228.944 271.847 264.961 271.847 309.389C271.847 353.818 307.802 389.835 352.154 389.835Z" fill="#C1E3F7"/>
<path d="M352.555 379.03C390.673 379.03 421.574 348.076 421.574 309.892C421.574 271.708 390.673 240.754 352.555 240.754C314.437 240.754 283.536 271.708 283.536 309.892C283.536 348.076 314.437 379.03 352.555 379.03Z" fill="#008EF8"/>
<path d="M284.049 301.39L348.138 302.283L348.317 288.876L287.083 288.027C285.639 292.371 284.623 296.847 284.049 301.39Z" fill="#0234C1"/>
<path d="M285.946 328.104L350.826 328.998L351.016 315.59L283.681 314.652C283.993 319.2 284.752 323.705 285.946 328.104Z" fill="#0234C1"/>
<path d="M294.322 347.009C295.723 349.224 297.254 351.354 298.906 353.388L349.744 354.103L350.19 340.696L290.374 339.88C291.546 342.334 292.864 344.714 294.322 347.009Z" fill="#0234C1"/>
</g>
<defs>
<clipPath id="clip0">
<rect width="513" height="480" fill="white"/>
</clipPath>
</defs>
</svg>
